<svg height="64" viewbox="0 0 64 64" width="64" xmlns="http://www.w3.org/2000/svg">
  <g class="nc-icon-wrapper" fill="#2b57fe"><path d="M61,53c-0.6,0-1,0.4-1,1c0,3.9-3.1,7-7,7c-2.5,0-4.9-1.4-6.1-3.7c-0.3-0.6-1.4-0.6-1.8,0 C43.9,59.6,41.5,61,39,61s-4.9-1.4-6.1-3.7c-0.3-0.6-1.4-0.6-1.8,0C29.9,59.6,27.5,61,25,61s-4.9-1.4-6.1-3.7 c-0.3-0.6-1.4-0.6-1.8,0C15.9,59.6,13.5,61,11,61c-3.9,0-7-3.1-7-7c0-0.6-0.4-1-1-1c-0.6,0-1,0.4-1,1c0,5,4,9,9,9 c2.7,0,5.3-1.3,7-3.4c1.7,2.1,4.3,3.4,7,3.4c2.7,0,5.3-1.3,7-3.4c1.7,2.1,4.3,3.4,7,3.4c2.7,0,5.3-1.3,7-3.4c1.7,2.1,4.3,3.4,7,3.4 c5,0,9-4,9-9C62,53.4,61.6,53,61,53z" data-color="color-2"/>
    <path d="M62,1h-8c-0.6,0-1,0.4-1,1v2c0,11.6-9.4,21-21,21c-11.6,0-21-9.4-21-21V2c0-0.6-0.4-1-1-1H2C1.4,1,1,1.4,1,2 v44c0,0.6,0.4,1,1,1h8c0.6,0,1-0.4,1-1v-3h42v3c0,0.6,0.4,1,1,1h8c0.6,0,1-0.4,1-1V2C63,1.4,62.6,1,62,1z M31,41h-8V25.2 c2.5,1.1,5.2,1.7,8,1.8V41z M33,27c2.8-0.1,5.5-0.8,8-1.8V41h-8V27z M11,13.4c2.1,4.6,5.6,8.4,10,10.8V41H11V13.4z M43,41V24.2 c4.4-2.4,7.9-6.2,10-10.8V41H43z" fill="#2b57fe"/></g>
</svg>
